HIERARCHY
ROOT root
{
	OFFSET 0.000000 0.000000 0.000000
	CHANNELS 6 Xposition Yposition Zposition Zrotation Yrotation Xrotation
	JOINT lhip
	{
		OFFSET 0.058581 -0.082280 -0.017664
		CHANNELS 3 Zrotation Yrotation Xrotation
		JOINT lknee
		{
			OFFSET 0.043451 -0.386469 0.008037
			CHANNELS 3 Zrotation Yrotation Xrotation
			JOINT lankle
			{
				OFFSET -0.014790 -0.426874 -0.037428
				CHANNELS 3 Zrotation Yrotation Xrotation
				JOINT ltoe
				{
					OFFSET 0.041054 -0.060286 0.122042
					CHANNELS 3 Zrotation Yrotation Xrotation
					End Site
					{
						OFFSET 0.000000 0.000000 0.000000
					}
				}
			}
		}
	}
	JOINT rhip
	{
		OFFSET -0.060310 -0.090513 -0.013543
		CHANNELS 3 Zrotation Yrotation Xrotation
		JOINT rknee
		{
			OFFSET -0.043257 -0.383688 -0.004843
			CHANNELS 3 Zrotation Yrotation Xrotation
			JOINT rankle
			{
				OFFSET 0.019056 -0.420046 -0.034562
				CHANNELS 3 Zrotation Yrotation Xrotation
				JOINT rtoe
				{
					OFFSET -0.034840 -0.062106 0.130323
					CHANNELS 3 Zrotation Yrotation Xrotation
					End Site
					{
						OFFSET 0.000000 0.000000 0.000000
					}
				}
			}
		}
	}
	JOINT lowerback
	{
		OFFSET 0.004439 0.124404 -0.038385
		CHANNELS 3 Zrotation Yrotation Xrotation
		JOINT upperback
		{
			OFFSET 0.004488 0.137956 0.026820
			CHANNELS 3 Zrotation Yrotation Xrotation
			JOINT chest
			{
				OFFSET -0.002265 0.056032 0.002855
				CHANNELS 3 Zrotation Yrotation Xrotation
				JOINT lowerneck
				{
					OFFSET -0.013390 0.211636 -0.033468
					CHANNELS 3 Zrotation Yrotation Xrotation
					JOINT upperneck
					{
						OFFSET 0.010113 0.088937 0.050410
						CHANNELS 3 Zrotation Yrotation Xrotation
						End Site
						{
							OFFSET 0.000000 0.000000 0.000000
						}
					}
				}
				JOINT lclavicle
				{
					OFFSET 0.071702 0.114000 -0.018898
					CHANNELS 3 Zrotation Yrotation Xrotation
					JOINT lshoulder
					{
						OFFSET 0.122921 0.045205 -0.019046
						CHANNELS 3 Zrotation Yrotation Xrotation
						JOINT lelbow
						{
							OFFSET 0.255332 -0.015649 -0.022946
							CHANNELS 3 Zrotation Yrotation Xrotation
							JOINT lwrist
							{
								OFFSET 0.265709 0.012698 -0.007375
								CHANNELS 3 Zrotation Yrotation Xrotation
								End Site
								{
									OFFSET 0.000000 0.000000 0.000000
								}
							}
						}
					}
				}
				JOINT rclavicle
				{
					OFFSET -0.082954 0.112472 -0.023707
					CHANNELS 3 Zrotation Yrotation Xrotation
					JOINT rshoulder
					{
						OFFSET -0.113228 0.046853 -0.008472
						CHANNELS 3 Zrotation Yrotation Xrotation
						JOINT relbow
						{
							OFFSET -0.260127 -0.014369 -0.031269
							CHANNELS 3 Zrotation Yrotation Xrotation
							JOINT rwrist
							{
								OFFSET -0.269108 0.006794 -0.006027
								CHANNELS 3 Zrotation Yrotation Xrotation
								End Site
								{
									OFFSET 0.000000 0.000000 0.000000
								}
							}
						}
					}
				}
			}
		}
	}
}
MOTION
Frames: 11
Frame Time: 0.033333
-1.376978 0.522279 0.964403 -44.471629 0.428147 105.055637 3.508671 -2.771363 -31.684886 -5.395277 4.629058 25.107774 4.599835 19.633922 -19.804256 0.000000 -0.000000 0.000000 -0.023624 9.637753 -43.607058 0.853327 1.332910 37.043310 5.784915 -11.157388 -12.340356 0.000000 -0.000000 0.000000 -2.234143 -4.147979 37.700666 0.787297 0.727934 -20.205972 0.587115 -4.199406 15.691296 3.654950 1.712102 -4.087661 0.532435 1.670418 16.946701 -16.510417 18.148489 -6.730688 -60.489284 -1.037935 16.804674 -10.517523 -41.749900 35.039010 4.390654 -6.612090 -19.355110 12.244680 -14.303284 -13.694420 64.707472 0.276683 28.148178 3.876836 37.717691 27.268712 6.734068 6.168792 -9.935720 
-1.380412 0.520403 0.965366 -44.423609 0.441223 105.178653 3.532411 -2.668242 -31.540105 -5.391926 4.529739 25.006133 4.597514 19.768179 -19.819351 0.000000 -0.000000 0.000000 0.139032 9.553364 -43.435285 0.960771 1.427368 36.963847 5.834396 -11.227209 -12.535429 0.000000 -0.000000 0.000000 -2.329987 -4.127027 37.280578 0.906373 0.694305 -20.227126 0.627189 -4.306660 15.703304 3.774105 1.789493 -3.930913 0.461480 1.796725 16.982619 -16.412413 18.509305 -6.791549 -59.966817 -1.052767 16.910039 -11.175508 -42.292573 35.813332 4.483762 -6.644402 -19.641714 12.358398 -14.762090 -13.849724 64.257929 0.190394 28.106422 3.973517 37.370096 27.225154 6.573661 6.101809 -9.755440 
-1.382701 0.519425 0.965728 -44.350851 0.438513 105.389424 3.550941 -2.596766 -31.555858 -5.374464 4.498742 24.858446 4.676962 19.749136 -19.601378 0.000000 -0.000000 0.000000 0.222679 9.556782 -43.469867 0.928735 1.415869 36.917502 5.789289 -11.275397 -12.586498 0.000000 -0.000000 0.000000 -2.352222 -4.123756 37.135385 0.965035 0.662402 -20.060093 0.658455 -4.376323 15.675434 3.837249 1.708249 -3.660335 0.563286 1.874835 16.736303 -16.335236 18.558885 -6.769871 -59.648603 -1.149520 16.889114 -11.389964 -42.830330 35.949538 4.606014 -6.575558 -19.802815 12.360036 -14.891669 -13.790398 64.012735 0.065753 27.996077 3.934447 37.678972 27.070520 6.369099 6.041293 -9.799207 
-1.384110 0.519020 0.965724 -44.354325 0.446391 105.666333 3.613966 -2.610721 -31.655765 -5.369203 4.497803 24.648650 4.829717 19.726554 -19.403701 0.000000 -0.000000 0.000000 0.213841 9.660807 -43.648277 0.933592 1.389042 36.862874 5.682563 -11.365006 -12.615586 0.000000 -0.000000 0.000000 -2.339796 -4.168496 37.132936 0.949988 0.689011 -19.782872 0.661086 -4.387562 15.638523 3.848110 1.544530 -3.410032 0.638555 2.017362 16.590963 -16.313670 18.512254 -6.721859 -59.456418 -1.234188 16.837836 -11.345748 -43.317817 35.720773 4.813116 -6.469734 -19.959231 12.247178 -14.760400 -13.643877 63.927776 -0.035285 28.021713 3.962239 38.184408 27.087478 6.409508 6.116362 -9.961634 
-1.385167 0.518590 0.965654 -44.555817 0.517119 105.981527 3.729960 -2.507263 -31.846798 -5.390097 4.561557 24.538385 4.939857 19.652081 -19.258575 0.000000 -0.000000 0.000000 0.215239 9.818020 -43.880720 0.974060 1.372016 36.773833 5.593187 -11.335880 -12.607711 0.000000 -0.000000 0.000000 -2.294307 -4.236700 37.168921 0.844285 0.788590 -19.550428 0.613814 -4.328510 15.632997 3.830843 1.522125 -3.146324 0.656387 2.167398 16.605659 -16.304692 18.534098 -6.724928 -59.363850 -1.224419 16.743170 -11.278649 -43.492345 35.580188 4.771503 -6.455673 -20.034236 12.075491 -14.628237 -13.475171 64.058151 0.013125 28.049513 4.071019 38.466735 27.248829 6.617887 6.245088 -10.215396 
-1.386330 0.518013 0.965699 -44.814501 0.588098 106.281157 3.828014 -2.308083 -32.005334 -5.440670 4.637207 24.427176 4.998713 19.572621 -19.172847 0.000000 -0.000000 0.000000 0.254226 9.865449 -44.097413 1.044700 1.390773 36.701065 5.576023 -11.168981 -12.567934 0.000000 -0.000000 0.000000 -2.279588 -4.256544 37.260957 0.751413 0.875160 -19.460203 0.575855 -4.292586 15.673388 3.792402 1.541318 -2.877696 0.615161 2.245442 16.696760 -16.325086 18.688663 -6.728690 -59.352551 -1.077641 16.630648 -11.325901 -43.515055 35.551155 4.819319 -6.384609 -19.969844 12.040056 -14.601167 -13.402152 64.151634 0.071194 28.087051 4.223351 38.729777 27.447344 6.564767 6.272366 -10.239950 
-1.387453 0.517324 0.965870 -45.016393 0.588301 106.576080 3.860094 -2.199378 -32.106897 -5.553337 4.573323 24.225617 5.103721 19.633388 -19.115413 0.000000 -0.000000 0.000000 0.187736 9.832824 -44.318080 1.190475 1.383500 36.628905 5.585640 -11.057190 -12.523827 0.000000 -0.000000 0.000000 -2.297777 -4.266255 37.324912 0.723867 0.908810 -19.433720 0.546565 -4.297058 15.776071 3.737959 1.618711 -2.634006 0.535428 2.345884 16.656339 -16.420648 18.879498 -6.741364 -59.236624 -0.876945 16.636934 -11.693873 -43.449165 35.846820 4.908291 -6.329401 -19.934078 12.150561 -14.721300 -13.434247 64.144328 0.116835 28.124236 4.332331 39.028041 27.469455 6.451172 6.268397 -10.274851 
-1.388244 0.516712 0.966293 -45.104924 0.601041 106.964659 3.937470 -2.135147 -32.373416 -5.664300 4.582382 24.107964 5.195007 19.597816 -19.109184 0.000000 -0.000000 0.000000 0.058042 9.917929 -44.596511 1.251857 1.310024 36.441363 5.632304 -11.045398 -12.404521 0.000000 -0.000000 0.000000 -2.254254 -4.309887 37.351743 0.754580 0.942756 -19.374569 0.534770 -4.304217 15.820960 3.724828 1.657222 -2.473416 0.564207 2.465232 16.459812 -16.548489 19.007574 -6.700010 -59.111607 -0.629049 16.650708 -11.957226 -43.460107 36.160122 4.554937 -6.511976 -19.758759 12.343829 -14.854367 -13.466224 63.961927 0.072141 27.962988 4.269912 39.253819 27.142158 6.921807 6.596970 -10.494010 
-1.388566 0.516694 0.966642 -45.042330 0.617049 107.476748 4.048838 -2.024650 -32.790830 -5.804575 4.618480 23.872097 5.204899 19.415112 -18.962750 0.000000 -0.000000 0.000000 -0.097868 9.987626 -45.028561 1.200309 1.140820 36.171131 5.711846 -11.025601 -12.138500 0.000000 -0.000000 0.000000 -2.149056 -4.359119 37.541995 0.781430 0.987439 -19.336745 0.605569 -4.354344 15.889558 3.647947 1.454275 -2.287342 0.733367 2.658982 15.761781 -16.637738 19.102863 -6.590018 -59.068058 -0.443754 16.603252 -12.227001 -43.705607 36.367140 4.538496 -6.465438 -19.791940 12.390350 -14.999879 -13.467660 63.860483 -0.012551 27.779634 4.347042 39.645866 27.010338 7.060069 6.802389 -10.731011 
-1.387745 0.517675 0.967015 -44.853809 0.641508 108.233952 4.184269 -1.853595 -33.521946 -5.957212 4.692948 23.515274 5.218459 19.046064 -18.656324 0.000000 -0.000000 0.000000 -0.360758 9.888896 -45.778900 1.221607 0.831007 35.751155 5.843714 -10.954380 -11.614123 0.000000 -0.000000 0.000000 -1.980827 -4.513652 38.104749 0.814628 1.027747 -19.360389 0.686333 -4.387516 15.955357 3.506840 1.302919 -2.132881 0.916600 2.832044 14.838296 -16.745511 19.185167 -6.573424 -58.899556 -0.254385 16.610537 -12.720834 -44.339331 36.929649 4.641269 -6.440067 -19.772675 12.404039 -15.133412 -13.439810 63.745189 -0.076035 27.603390 4.476933 40.399025 26.996611 7.013535 6.776647 -10.607386 
-1.385253 0.519731 0.966826 -44.567956 0.691328 109.230606 4.360791 -1.739461 -34.727254 -6.025302 4.834353 23.257689 5.149986 18.499283 -18.200879 0.000000 -0.000000 0.000000 -0.650369 9.652301 -46.961367 1.093844 0.322269 35.373608 6.024864 -10.587140 -10.930662 0.000000 -0.000000 0.000000 -1.652106 -4.745429 39.228927 0.822861 1.039699 -19.384696 0.752146 -4.341029 15.961426 3.267104 1.216886 -1.910634 1.211146 2.964607 13.664398 -16.786619 19.208155 -6.655652 -58.779819 -0.011679 16.568297 -13.226493 -45.502495 37.534649 4.466138 -6.516351 -19.862219 12.312749 -15.222546 -13.297702 63.608353 -0.123210 27.236014 4.664275 41.701901 27.114351 6.971600 6.813035 -10.438941 
